PathFileType	4	(X/Y/Z)	C:\Users\Basilio\Documents\Thesis Gigler\squatting_fais\c3dfiles\038\SLS_back_pre4\markers_experimental.trc
DataRate	CameraRate	NumFrames	NumMarkers	Units	OrigDataRate	OrigDataStartFrame	OrigNumFrames
200.000000	200.000000	4	63	mm	200.000000	743	1982
Frame#	Time	FHD			LBHD			RBHD			C7			T10			CLAV			LSHO			LUUPA			LMUPA			LDUPA			LLEP			LMEP			LRAD			LUL			LRFIN			RSHO			RUPA1			RMUPA			RDUPA			RLEP			RMEP			RRAD			RUL			RUFIN			LASI			RASI			USACR			LSACR			RSACR			LTHI1			LTHI2			LTHI3			LTHI4			LLFC			LMFC			LTIB1			LTIB2			LTIB3			LTIB4			LLMAL			LMMAL			LHEE			LMT1			LMT2			LMT5			RTHI			RTHI2			RTHI3			RTHI4			RLFC			RMFC			RTIB1			RTIB2			RTIB3			RTIB4			RLMAL			RMMAL			RHEE			RMT1			RMT2			RMT5			*61			*62			
		X1	Y1	Z1	X2	Y2	Z2	X3	Y3	Z3	X4	Y4	Z4	X5	Y5	Z5	X6	Y6	Z6	X7	Y7	Z7	X8	Y8	Z8	X9	Y9	Z9	X10	Y10	Z10	X11	Y11	Z11	X12	Y12	Z12	X13	Y13	Z13	X14	Y14	Z14	X15	Y15	Z15	X16	Y16	Z16	X17	Y17	Z17	X18	Y18	Z18	X19	Y19	Z19	X20	Y20	Z20	X21	Y21	Z21	X22	Y22	Z22	X23	Y23	Z23	X24	Y24	Z24	X25	Y25	Z25	X26	Y26	Z26	X27	Y27	Z27	X28	Y28	Z28	X29	Y29	Z29	X30	Y30	Z30	X31	Y31	Z31	X32	Y32	Z32	X33	Y33	Z33	X34	Y34	Z34	X35	Y35	Z35	X36	Y36	Z36	X37	Y37	Z37	X38	Y38	Z38	X39	Y39	Z39	X40	Y40	Z40	X41	Y41	Z41	X42	Y42	Z42	X43	Y43	Z43	X44	Y44	Z44	X45	Y45	Z45	X46	Y46	Z46	X47	Y47	Z47	X48	Y48	Z48	X49	Y49	Z49	X50	Y50	Z50	X51	Y51	Z51	X52	Y52	Z52	X53	Y53	Z53	X54	Y54	Z54	X55	Y55	Z55	X56	Y56	Z56	X57	Y57	Z57	X58	Y58	Z58	X59	Y59	Z59	X60	Y60	Z60	X61	Y61	Z61	X62	Y62	Z62	X63	Y63	Z63	

744	3.715	-210.5058135986329	1679.648803710938	-1053.150390625	-368.2742919921876	1638.063110351563	-1112.600463867188	-359.2746276855469	1621.31982421875	-968.423034667969	-420.3869628906251	1454.868530273438	-1045.578491210938	-419.9564208984376	1174.560791015625	-1037.583251953125	-276.7585144042969	1435.359130859375	-1057.30810546875	-345.9688415527344	1478.476806640625	-1194.292724609375	-188.8018646240235	1420.3359375	-1333.015625	-160.352767944336	1454.69287109375	-1308.653198242188	-120.7419891357422	1429.34619140625	-1345.765747070313	-58.35186004638673	1432.86279296875	-1350.406005859375	-46.39363479614259	1358.34814453125	-1327.645385742188	227.0735015869141	1437.7529296875	-1243.967041015625	236.6735382080079	1447.179565429688	-1315.43115234375	299.6982727050782	1470.736450195313	-1226.715942382813	-327.9861755371094	1469.280883789063	-915.407653808594	-167.8213806152344	1447.6806640625	-802.274108886719	-133.993896484375	1458.428588867188	-835.643981933594	-99.33083343505862	1444.737670898438	-787.6036376953127	-25.71846961975098	1444.663452148438	-780.089782714844	-17.53854370117188	1367.016845703125	-798.2547607421877	247.4580078125001	1454.834350585938	-874.0670166015627	260.4090881347657	1463.817993164063	-805.277282714844	326.2947692871094	1492.5927734375	-879.603942871094	-251.2195434570313	977.0716552734377	-1132.359497070313	-278.1564941406251	997.6209716796877	-883.5167236328127	-432.006805419922	1036.562133789063	-1029.275756835938	-442.1871948242189	1005.143493652344	-1057.301025390625	-448.1389160156251	1008.380615234375	-1000.19677734375	-206.5471343994141	671.7619018554689	-1180.603271484375	-153.6216125488282	605.0609741210939	-1170.674560546875	-113.37841796875	623.5737915039064	-1146.00634765625	-167.9809875488282	549.5773925781251	-1151.390502929688	-157.6071014404297	493.1712646484376	-1137.200927734375	-150.398681640625	498.492889404297	-1021.173278808594	-181.4357299804688	317.3775939941407	-1040.5283203125	-237.926010131836	284.9577636718751	-1101.789916992188	-206.0957031250001	272.0519714355469	-1069.838623046875	-248.8233489990235	209.6065521240235	-1030.903686523438	-377.2670288085938	116.0687866210938	-1041.727416992188	-334.7333374023438	132.61376953125	-968.8524169921877	-432.5506591796876	100.6276550292969	-981.4700317382815	-233.5375518798829	47.42329406738282	-975.8768310546877	-225.5741882324219	45.17716979980469	-1025.950805664063	-271.0547485351563	34.4586296081543	-1073.063598632813	-319.3408508300782	727.7738037109376	-809.386169433594	-282.1490173339844	672.8085327148439	-796.7307128906252	-249.244613647461	673.8981323242189	-799.4429321289065	-309.6280517578126	591.4579467773439	-802.551452636719	-306.7124328613282	486.9844360351564	-811.341247558594	-297.7377624511719	473.9572143554689	-923.8799438476565	-428.4116821289064	368.3542785644532	-841.9138183593752	-536.1195068359376	410.1483764648439	-831.2610473632815	-513.8648681640626	368.3422546386719	-831.1246337890627	-550.9751586914064	335.7230224609376	-864.815124511719	-686.0596923828126	350.7489013671876	-860.9031982421877	-658.5037841796876	313.3781433105469	-930.5320434570315	-713.7047729492189	393.6495056152345	-940.380798339844	-721.6820678710939	179.3469696044922	-908.5617675781252	-732.7628784179689	185.9644165039063	-862.5947875976565	-766.2830200195314	230.6545104980469	-833.1201782226565	nan	nan	nan	nan	nan	nan	
745	3.72	-210.2846374511719	1678.76171875	-1053.320556640625	-368.0465393066407	1637.123046875	-1112.695678710938	-359.0846862792969	1620.61376953125	-968.5522460937502	-420.4512023925782	1454.269897460938	-1045.604248046875	-420.0819091796876	1173.816162109375	-1037.739501953125	-276.8326416015626	1434.4736328125	-1057.232177734375	-345.9352111816407	1477.622192382813	-1194.263793945313	-188.7476501464844	1419.532592773438	-1333.085083007813	-160.3835601806641	1453.870239257813	-1308.778686523438	-120.6588134765625	1428.574951171875	-1345.9619140625	-58.32620239257814	1431.904907226563	-1350.484497070313	-46.36469650268555	1357.652099609375	-1327.68994140625	226.9013977050782	1436.571166992188	-1244.327270507813	236.6804504394532	1446.282592773438	-1315.739135742188	299.7594604492188	1469.94921875	-1227.0126953125	-327.8868713378907	1468.577514648438	-915.3682861328127	-167.6809692382813	1446.446533203125	-802.3747558593752	-133.8297271728516	1457.436279296875	-835.618591308594	-99.046989440918	1443.724853515625	-787.7994384765627	-25.45487594604493	1443.583374023438	-780.2292480468752	-17.3742733001709	1366.058837890625	-798.197692871094	247.6538696289063	1453.906860351563	-874.2456665039065	260.7453918457032	1463.008666992188	-805.6145019531252	326.4664306640626	1491.289672851563	-879.3784179687502	-251.2620849609376	976.263366699219	-1132.299926757813	-278.6571960449219	996.6268310546877	-883.731872558594	-432.1995544433595	1035.71337890625	-1029.306884765625	-442.432098388672	1004.423156738281	-1057.510375976563	-448.4865722656251	1007.612487792969	-1000.374084472656	-206.2908935546876	671.2211914062501	-1180.823974609375	-153.2767333984375	604.6441040039064	-1170.73876953125	-112.82958984375	623.3061523437501	-1146.193603515625	-166.9702301025391	548.8279418945314	-1151.576538085938	-156.753402709961	493.2525634765626	-1137.384887695313	-148.7615051269532	497.9431457519532	-1021.024719238281	-181.1293182373047	317.0565490722657	-1040.652587890625	-237.5371093750001	284.6732482910157	-1101.859497070313	-206.0571746826172	271.8303833007813	-1070.062622070313	-248.6777648925782	209.3835754394532	-1030.943969726563	-377.2166442871094	116.0228576660157	-1041.708862304688	-334.7407226562501	132.590576171875	-968.907409667969	-432.5488586425782	100.6744918823242	-981.4754638671877	-233.2783966064454	47.68335723876954	-975.589782714844	-225.8046112060547	44.82640838623048	-1026.058471679688	-271.0597534179688	34.44130325317384	-1073.077392578125	-319.8067932128907	727.1371459960939	-809.4341430664065	-282.3999023437501	671.8972167968751	-796.6731567382815	-249.3623046875001	673.0384521484376	-799.515563964844	-309.8493957519532	590.4072265625001	-802.553161621094	-306.7073364257813	486.4005126953126	-811.299743652344	-297.9132995605469	473.2708129882814	-924.0646972656252	-428.803924560547	367.3086242675782	-842.2058105468752	-536.3721313476564	409.7759094238282	-831.6662597656252	-514.1873168945314	367.7005310058594	-831.4314575195315	-551.1787719726564	335.3179626464844	-865.1360473632815	-686.2697753906251	350.3584594726563	-861.3441162109377	-658.7515258789064	313.0040588378907	-930.933532714844	-713.8506469726564	393.3915405273439	-940.8151855468752	-722.1894531250001	179.0319061279297	-908.881530761719	-733.1879272460939	185.5621643066407	-863.189880371094	-766.6714477539064	230.3806304931641	-833.6111450195315	nan	nan	nan	nan	nan	nan	
746	3.725	-210.0708007812501	1678.193115234375	-1053.396362304688	-367.9177856445313	1636.3955078125	-1112.714477539063	-359.0281677246094	1619.971313476563	-968.5417480468752	-420.2983703613282	1453.340942382813	-1045.566650390625	-420.2264099121095	1173.078002929688	-1037.712524414063	-276.7777709960938	1433.614501953125	-1057.266723632813	-345.7849121093751	1476.973022460938	-1194.280151367188	-188.6305541992188	1418.68505859375	-1333.213623046875	-160.2813415527344	1453.117065429688	-1308.889770507813	-120.6417388916016	1427.695556640625	-1345.949340820313	-58.35493469238283	1431.191040039063	-1350.53759765625	-46.38976669311524	1355.9873046875	-1327.70556640625	227.2046356201172	1436.127319335938	-1244.407348632813	236.7102966308594	1445.384155273438	-1315.970581054688	299.7746276855469	1469.143798828125	-1227.28515625	-327.7678527832032	1467.87353515625	-915.4777832031252	-167.378173828125	1445.625244140625	-802.5029296875002	-133.7037200927735	1456.67578125	-835.764587402344	-98.81398010253909	1442.993896484375	-787.7817382812502	-25.29553413391114	1442.689208984375	-780.4558105468752	-17.13245964050293	1365.109497070313	-798.3845825195315	247.8981018066407	1453.275634765625	-874.417419433594	260.9486389160157	1462.039184570313	-805.7070922851565	326.8130187988282	1490.305908203125	-879.8282470703127	-251.6573333740235	975.2996215820315	-1132.391479492188	-279.1815795898438	995.7513427734377	-883.5590820312502	-432.3626098632814	1035.19677734375	-1029.5166015625	-442.6107482910157	1003.859008789063	-1057.702392578125	-448.6028137207032	1006.789611816406	-1000.549255371094	-205.9167022705079	670.6392211914064	-1180.925415039063	-152.9492340087891	604.0623779296876	-1170.67138671875	-112.396224975586	622.8823242187501	-1146.346557617188	-167.0296173095703	548.6658325195314	-1151.717041015625	-156.1404876708985	492.8602294921876	-1137.49169921875	-148.1607513427735	497.6011352539064	-1021.10009765625	-180.8834991455078	316.7841796875001	-1040.714233398438	-237.2359619140626	284.3719482421876	-1101.948364257813	-205.6795806884766	271.4225463867188	-1070.099365234375	-248.5266265869141	209.1708526611329	-1031.009033203125	-377.1748046875001	115.986801147461	-1041.755981445313	-334.6983642578126	132.5352325439453	-968.9184570312502	-432.5533142089845	100.6630935668946	-981.479187011719	-233.2736816406251	47.71545410156251	-975.5591430664065	-225.7461242675782	44.8899040222168	-1026.08349609375	-271.0464477539063	34.45014953613282	-1073.073608398438	-320.3523254394532	726.3574218750001	-809.537536621094	-282.6757507324219	671.1110839843751	-796.738464355469	-249.6096496582032	672.3796386718751	-799.5222167968752	-310.1242065429688	589.5162963867189	-802.6445922851565	-306.9904479980469	485.811737060547	-811.4237060546877	-298.1589660644532	472.3973388671876	-924.2296142578127	-428.953094482422	366.6193847656251	-842.3701171875002	-536.6040649414064	409.2236328125001	-832.0330810546877	-514.4023437500001	367.1731567382813	-831.8245239257815	-551.4622802734376	334.8314514160157	-865.3583984375002	-686.6557006835939	349.9995422363282	-861.8052978515627	-659.0168457031251	312.8000488281251	-931.398132324219	-714.0693969726564	393.0432128906251	-941.2490234375002	-722.8286743164064	178.6746520996094	-909.2866210937502	-733.6861572265626	185.150634765625	-863.6257324218752	-766.8769531250001	230.3682098388672	-834.089782714844	nan	nan	nan	nan	nan	nan	
747	3.73	-210.1469116210938	1677.30126953125	-1053.2783203125	-367.7463989257813	1635.58740234375	-1112.697631835938	-358.7658691406251	1618.859497070313	-968.4798583984377	-420.1185607910157	1452.67333984375	-1045.717651367188	-420.4062805175782	1172.396850585938	-1037.775268554688	-276.6238708496094	1432.853149414063	-1057.375122070313	-345.7384948730469	1476.25146484375	-1194.361938476563	-188.7638092041016	1417.870239257813	-1333.14794921875	-160.4477996826172	1452.15087890625	-1308.86669921875	-120.7087860107422	1426.848022460938	-1345.952270507813	-57.89193725585939	1430.10302734375	-1350.614135742188	-46.39793014526368	1356.048706054688	-1327.756103515625	227.3795166015626	1434.995361328125	-1244.603393554688	236.8417968750001	1444.59814453125	-1316.22509765625	300.1093750000001	1468.115844726563	-1227.71337890625	-327.4559326171876	1466.75732421875	-915.245056152344	-167.2706451416016	1444.895263671875	-802.6138916015627	-133.558837890625	1455.828491210938	-835.7926025390627	-98.68440246582034	1442.194213867188	-787.8240356445315	-25.00760078430176	1441.923706054688	-780.5977172851565	-17.0539722442627	1364.396118164063	-798.4414062500002	247.9546508789063	1452.187133789063	-874.5786743164065	261.2051391601563	1460.980102539063	-805.855651855469	326.9455261230469	1489.35107421875	-879.9418945312502	-251.8640899658204	974.6223754882815	-1132.288330078125	-279.6589050292969	995.0476684570315	-883.392028808594	-432.4353942871095	1034.321533203125	-1029.719116210938	-442.8662109375001	1003.023620605469	-1057.931396484375	-448.9689025878907	1006.027099609375	-1000.844299316406	-205.7430267333985	670.1540527343751	-1180.975219726563	-152.5471649169922	603.6150512695314	-1170.798950195313	-111.9355545043946	622.4948120117189	-1146.548706054688	-166.5974884033203	548.1777343750001	-1151.849365234375	-155.565170288086	492.4573364257814	-1137.71484375	-147.6470642089844	497.1163635253907	-1021.14208984375	-180.6087036132813	316.3691711425782	-1040.716552734375	-236.9683532714844	284.0818786621094	-1101.943969726563	-205.5191192626954	271.1781005859376	-1070.235473632813	-248.4374084472657	208.9505920410157	-1031.075927734375	-377.2104187011719	115.9712448120117	-1041.825317382813	-334.6501159667969	132.4635009765625	-968.951110839844	-432.5462646484376	100.6809539794922	-981.4869384765627	-233.2702789306641	47.73250579833985	-975.544128417969	-225.8349761962891	44.8149757385254	-1026.107666015625	-271.0545654296876	34.40719223022462	-1073.094116210938	-320.5143737792969	725.2739257812501	-809.544616699219	-283.1046142578126	670.2875366210939	-796.7081298828127	-250.0387115478516	671.5173339843751	-799.6140136718752	-310.3876037597657	588.7777709960939	-802.8833007812502	-307.1407470703126	484.8389892578126	-811.5720825195315	-298.4028015136719	471.4949340820314	-924.342224121094	-429.2005004882814	366.0591430664063	-842.6882934570315	-536.9523925781251	408.7100219726564	-832.4063720703127	-514.7069702148439	366.5758056640626	-832.1571044921877	-551.7365722656251	333.9645080566407	-865.6824951171877	-686.9179687500001	349.6944580078126	-862.3474731445315	-659.2932739257814	312.4003295898438	-931.901794433594	-714.2362060546876	392.6977844238282	-941.6638183593752	-723.3184204101564	178.4802703857422	-909.7313232421877	-734.2578735351564	184.8621215820313	-864.2803344726565	-767.6065673828126	229.8062591552735	-834.7740478515627	nan	nan	nan	nan	nan	nan	
